# xmcd
#
# Track frame offsets:
#	150
#	17433
#	30206
#	49929
#	68755
#	82531
#	105994
#	121447
#	141540
#	158847
#	180748
#	194958
#
# Disc length: 2832 seconds
#
# Revision: 1
# Processed by: cddbd v1.5.1PL2 Copyright (c) Steve Scherf et al.
# Submitted via: audiograbber 1.83.01
#
DISCID=970b0e0c
DTITLE=Dana Gillespie - Experienced
DYEAR=2000
DGENRE=Blues
TTITLE0=Experienced
TTITLE1=Tough Love
TTITLE2=One Kiss X 108
TTITLE3=Something Coming
TTITLE4=Break Down The Door
TTITLE5=Ten Ton Blocks
TTITLE6=Crying For The Moon
TTITLE7=There Will Always Be A New Tomorrow
TTITLE8=Try Me
TTITLE9=Happy Birthday Blues
TTITLE10=Me Without You
TTITLE11=Take It Like A Man
EXTD=
EXTT0=
EXTT1=
EXTT2=
EXTT3=
EXTT4=
EXTT5=
EXTT6=
EXTT7=
EXTT8=
EXTT9=
EXTT10=
EXTT11=
PLAYORDER=
